<?xml version="1.0" encoding="UTF-8" standalone="no"?>
<svg
   height="16px"
   viewBox="0 0 16 16"
   width="16px"
   version="1.1"
   id="svg2061"
   sodipodi:docname="network-excellent.svg"
   inkscape:version="1.2.2 (b0a8486541, 2022-12-01)"
   xmlns:inkscape="http://www.inkscape.org/namespaces/inkscape"
   xmlns:sodipodi="http://sodipodi.sourceforge.net/DTD/sodipodi-0.dtd"
   xmlns="http://www.w3.org/2000/svg"
   xmlns:svg="http://www.w3.org/2000/svg">
  <defs
     id="defs2065" />
  <sodipodi:namedview
     id="namedview2063"
     pagecolor="#505050"
     bordercolor="#eeeeee"
     borderopacity="1"
     inkscape:showpageshadow="0"
     inkscape:pageopacity="0"
     inkscape:pagecheckerboard="0"
     inkscape:deskcolor="#505050"
     showgrid="false"
     inkscape:zoom="64.1875"
     inkscape:cx="7.6183057"
     inkscape:cy="7.9922103"
     inkscape:window-width="2560"
     inkscape:window-height="1371"
     inkscape:window-x="0"
     inkscape:window-y="0"
     inkscape:window-maximized="1"
     inkscape:current-layer="svg2061" />
  <path
     d="m 13,1 c -0.5547,0 -1,0.4453 -1,1 v 12 c 0,0.5547 0.4453,1 1,1 h 1 c 0.5547,0 1,-0.4453 1,-1 V 2 C 15,1.4453 14.5547,1 14,1 Z M 9,4 C 8.4453,4 8,4.4453 8,5 v 9 c 0,0.5547 0.4453,1 1,1 h 1 c 0.5547,0 1,-0.4453 1,-1 V 5 C 11,4.4453 10.5547,4 10,4 Z M 5,7 C 4.4453,7 4,7.4453 4,8 v 6 c 0,0.5547 0.4453,1 1,1 h 1 c 0.5547,0 1,-0.4453 1,-1 V 8 C 7,7.4453 6.5547,7 6,7 Z m -4,3 c -0.5547,0 -1,0.4453 -1,1 v 3 c 0,0.5547 0.4453,1 1,1 h 1 c 0.5547,0 1,-0.4453 1,-1 V 11 C 3,10.4453 2.5547,10 2,10 Z m 0,0"
     fill="#2e3436"
     id="path63736-9"
     style="fill:#2bc62f;fill-opacity:1" />
</svg>
