<?xml version="1.0" encoding="UTF-8" standalone="no"?>
<svg
   height="16px"
   viewBox="0 0 16 16"
   width="16px"
   version="1.1"
   id="svg2061"
   sodipodi:docname="network-disconnected.svg"
   inkscape:version="1.2.2 (b0a8486541, 2022-12-01)"
   xmlns:inkscape="http://www.inkscape.org/namespaces/inkscape"
   xmlns:sodipodi="http://sodipodi.sourceforge.net/DTD/sodipodi-0.dtd"
   xmlns="http://www.w3.org/2000/svg"
   xmlns:svg="http://www.w3.org/2000/svg">
  <defs
     id="defs2065" />
  <sodipodi:namedview
     id="namedview2063"
     pagecolor="#505050"
     bordercolor="#eeeeee"
     borderopacity="1"
     inkscape:showpageshadow="0"
     inkscape:pageopacity="0"
     inkscape:pagecheckerboard="0"
     inkscape:deskcolor="#505050"
     showgrid="false"
     inkscape:zoom="64.1875"
     inkscape:cx="7.6183057"
     inkscape:cy="7.9922103"
     inkscape:window-width="2560"
     inkscape:window-height="1371"
     inkscape:window-x="0"
     inkscape:window-y="0"
     inkscape:window-maximized="1"
     inkscape:current-layer="svg2061" />
  <g
     id="g99354"
     transform="translate(-2388.2885,-3285.1396)">
    <path
       d="m 2401.2885,3286.1396 c -0.5547,0 -1,0.4453 -1,1 v 7.2695 c 0.1485,0.09 0.2891,0.1914 0.4141,0.3164 l 0.414,0.4141 h 0.3438 l 0.4141,-0.4141 c 0.375,-0.375 0.8828,-0.5859 1.414,-0.5859 v -7 c 0,-0.5547 -0.4453,-1 -1,-1 z m -4,3 c -0.5547,0 -1,0.4453 -1,1 v 9 c 0,0.5547 0.4453,1 1,1 h 0.01 c 0,-0.5156 0.1914,-1.0273 0.5781,-1.4141 l 0.4141,-0.414 v -0.3438 l -0.4141,-0.414 c -0.7734,-0.7735 -0.7734,-2.0547 0,-2.8282 0.375,-0.375 0.8829,-0.5859 1.4141,-0.5859 v -4 c 0,-0.5547 -0.4453,-1 -1,-1 z m -4,3 c -0.5547,0 -1,0.4453 -1,1 v 6 c 0,0.5547 0.4453,1 1,1 h 1 c 0.5547,0 1,-0.4453 1,-1 v -6 c 0,-0.5547 -0.4453,-1 -1,-1 z m -4,3 c -0.5547,0 -1,0.4453 -1,1 v 3 c 0,0.5547 0.4453,1 1,1 h 1 c 0.5547,0 1,-0.4453 1,-1 v -3 c 0,-0.5547 -0.4453,-1 -1,-1 z m 0,0"
       fill="#2e3434"
       fill-opacity="0.34902"
       id="path99340"
       style="fill:#ffffff;fill-opacity:0.2" />
    <path
       d="m 2399.2885,3295.1396 c -0.2656,0 -0.5195,0.1055 -0.707,0.293 -0.3906,0.3906 -0.3906,1.0234 0,1.414 l 1.293,1.293 -1.293,1.293 c -0.3906,0.3906 -0.3906,1.0234 0,1.414 0.3906,0.3907 1.0234,0.3907 1.414,0 l 1.293,-1.2929 1.293,1.2929 c 0.3906,0.3907 1.0234,0.3907 1.414,0 0.3907,-0.3906 0.3907,-1.0234 0,-1.414 l -1.2929,-1.293 1.2929,-1.293 c 0.3907,-0.3906 0.3907,-1.0234 0,-1.414 -0.1875,-0.1875 -0.4414,-0.293 -0.707,-0.293 -0.2656,0 -0.5195,0.1055 -0.707,0.293 l -1.293,1.2929 -1.293,-1.2929 c -0.1875,-0.1875 -0.4414,-0.293 -0.707,-0.293 z m 0,0"
       fill="#2e3436"
       id="path99342"
       style="fill:#b8131a;fill-opacity:1" />
  </g>
</svg>
