<?xml version="1.0" encoding="UTF-8" standalone="no"?>
<svg
   height="16px"
   viewBox="0 0 16 16"
   width="16px"
   version="1.1"
   id="svg41859"
   sodipodi:docname="recording-pause-inactive.svg"
   inkscape:version="1.2.2 (b0a8486541, 2022-12-01)"
   xmlns:inkscape="http://www.inkscape.org/namespaces/inkscape"
   xmlns:sodipodi="http://sodipodi.sourceforge.net/DTD/sodipodi-0.dtd"
   xmlns="http://www.w3.org/2000/svg"
   xmlns:svg="http://www.w3.org/2000/svg">
  <defs
     id="defs41863" />
  <sodipodi:namedview
     id="namedview41861"
     pagecolor="#505050"
     bordercolor="#eeeeee"
     borderopacity="1"
     inkscape:showpageshadow="0"
     inkscape:pageopacity="0"
     inkscape:pagecheckerboard="0"
     inkscape:deskcolor="#505050"
     showgrid="false"
     inkscape:zoom="64.1875"
     inkscape:cx="7.2444012"
     inkscape:cy="7.9922103"
     inkscape:window-width="2560"
     inkscape:window-height="1371"
     inkscape:window-x="0"
     inkscape:window-y="0"
     inkscape:window-maximized="1"
     inkscape:current-layer="svg41859" />
  <g
     fill="#2e3436"
     id="g26959"
     style="fill:#ffffff;fill-opacity:0.2">
    <path
       d="m 3,1 h 3 c 0.550781,0 1,0.449219 1,1 v 12 c 0,0.550781 -0.449219,1 -1,1 H 3 C 2.449219,15 2,14.550781 2,14 V 2 C 2,1.449219 2.449219,1 3,1 Z m 0,0"
       id="path26955"
       style="fill:#ffffff;fill-opacity:0.2" />
    <path
       d="m 10,1 h 3 c 0.550781,0 1,0.449219 1,1 v 12 c 0,0.550781 -0.449219,1 -1,1 H 10 C 9.449219,15 9,14.550781 9,14 V 2 C 9,1.449219 9.449219,1 10,1 Z m 0,0"
       id="path26957"
       style="fill:#ffffff;fill-opacity:0.2" />
  </g>
</svg>
